# Blender v2.80 (sub 75) OBJ File: ''
# www.blender.org
mtllib smallBillboardPanel.mtl
o ScreenCover_Mesh.065
v 0.264482 -4.681474 0.106174
v 0.439648 -4.681474 0.106174
v 3.572412 -4.681474 0.106174
v 6.705175 -4.681474 0.106174
v 6.880342 -4.681474 0.106174
v 0.264482 -4.555056 0.106174
v 0.439648 -4.555056 0.106174
v 3.572412 -4.555056 0.106174
v 6.705175 -4.555056 0.106174
v 6.880342 -4.555056 0.106174
v 0.264482 -2.314030 0.106174
v 0.439648 -2.314030 0.106174
v 6.705175 -2.314030 0.106174
v 6.880342 -2.314030 0.106174
v 0.264482 -0.104060 0.106174
v 0.439648 -0.104060 0.106174
v 3.572412 -0.104060 0.106174
v 6.705175 -0.104060 0.106174
v 6.880342 -0.104060 0.106174
v 0.264482 0.053413 0.106174
v 0.439648 0.053413 0.106174
v 3.572412 0.053413 0.106174
v 6.705175 0.053413 0.106174
v 6.880342 0.053413 0.106174
v 0.264482 0.053413 -0.016096
v 0.439648 0.053413 -0.016096
v 3.572412 0.053413 -0.016096
v 6.705175 0.053413 -0.016096
v 6.880342 0.053413 -0.016096
v 0.264482 0.053413 -0.126380
v 0.439648 0.053413 -0.126380
v 3.572412 0.053413 -0.126380
v 6.705175 0.053413 -0.126380
v 6.880342 0.053413 -0.126380
v 0.264482 -0.104060 -0.126380
v 0.439648 -0.104060 -0.126380
v 3.572412 -0.104060 -0.126380
v 6.705175 -0.104060 -0.126380
v 6.880342 -0.104060 -0.126380
v 0.264482 -2.314030 -0.126381
v 0.439648 -2.314030 -0.126381
v 3.572412 -2.314030 -0.126381
v 6.705175 -2.314030 -0.126381
v 6.880342 -2.314030 -0.126381
v 0.264482 -4.555056 -0.126381
v 0.439648 -4.555056 -0.126381
v 3.572412 -4.555056 -0.126381
v 6.705175 -4.555056 -0.126381
v 6.880342 -4.555056 -0.126381
v 0.264482 -4.681474 -0.126381
v 0.439648 -4.681474 -0.126381
v 3.572412 -4.681474 -0.126381
v 6.705175 -4.681474 -0.126381
v 6.880342 -4.681474 -0.126381
v 0.264482 -4.681474 -0.016096
v 0.439648 -4.681474 -0.016096
v 3.572412 -4.681474 -0.016096
v 6.705175 -4.681474 -0.016096
v 6.880342 -4.681474 -0.016096
v 6.880342 -4.555056 -0.016096
v 6.880342 -2.314030 -0.016096
v 6.880342 -0.104060 -0.016096
v 0.264482 -4.555056 -0.016096
v 0.264482 -2.314030 -0.016096
v 0.264482 -0.104060 -0.016096
v 0.439648 -4.555056 -0.087824
v 3.572412 -4.555056 -0.087824
v 0.439648 -2.314030 -0.087823
v 6.705175 -4.555056 -0.087824
v 6.705175 -2.314030 -0.087823
v 3.572412 -0.104060 -0.087823
v 0.439648 -0.104060 -0.087823
v 6.705175 -0.104060 -0.087823
vt 0.962185 0.749940
vt 0.953330 0.749940
vt 0.953330 0.756259
vt 0.962185 0.756259
vt 0.794959 0.749940
vt 0.794959 0.756259
vt 0.636589 0.749940
vt 0.636589 0.756259
vt 0.627734 0.749940
vt 0.627734 0.756259
vt 0.953330 0.868276
vt 0.962185 0.868276
vt 0.627734 0.868276
vt 0.636589 0.868276
vt 0.953330 0.978740
vt 0.962185 0.978740
vt 0.627734 0.978740
vt 0.636589 0.978740
vt 0.953330 0.986611
vt 0.962185 0.986611
vt 0.794959 0.978740
vt 0.794959 0.986611
vt 0.636589 0.986611
vt 0.627734 0.986611
vt 0.161317 0.824974
vt 0.172885 0.824974
vt 0.172885 0.814183
vt 0.161317 0.814183
vt 0.379768 0.824974
vt 0.379768 0.814183
vt 0.586651 0.824974
vt 0.586651 0.814183
vt 0.598219 0.824974
vt 0.598219 0.814183
vt 0.172885 0.803392
vt 0.161317 0.803392
vt 0.379768 0.803392
vt 0.586651 0.803392
vt 0.598219 0.803392
vt 0.962185 0.986611
vt 0.953330 0.986611
vt 0.953330 0.978740
vt 0.962185 0.978740
vt 0.794959 0.986611
vt 0.794959 0.978740
vt 0.636589 0.986611
vt 0.636589 0.978740
vt 0.627734 0.986611
vt 0.627734 0.978740
vt 0.953330 0.868276
vt 0.962185 0.868276
vt 0.794960 0.868276
vt 0.636589 0.868276
vt 0.627734 0.868276
vt 0.953330 0.756259
vt 0.962185 0.756259
vt 0.794959 0.756259
vt 0.636589 0.756259
vt 0.627734 0.756259
vt 0.953330 0.749940
vt 0.962185 0.749940
vt 0.794959 0.749940
vt 0.636589 0.749940
vt 0.627734 0.749940
vt 0.161317 0.803392
vt 0.172885 0.803392
vt 0.172885 0.814183
vt 0.161317 0.814183
vt 0.379768 0.803392
vt 0.379768 0.814183
vt 0.586651 0.803392
vt 0.586651 0.814183
vt 0.598219 0.803392
vt 0.598219 0.814183
vt 0.172885 0.824974
vt 0.161317 0.824974
vt 0.379768 0.824974
vt 0.586651 0.824974
vt 0.598219 0.824974
vt 0.603097 0.880329
vt 0.603097 0.865168
vt 0.591367 0.865168
vt 0.591367 0.880329
vt 0.603097 0.895491
vt 0.591367 0.895491
vt 0.383431 0.865168
vt 0.383431 0.880329
vt 0.383431 0.895491
vt 0.178376 0.865168
vt 0.178376 0.880329
vt 0.178376 0.895491
vt 0.163764 0.865168
vt 0.163764 0.880329
vt 0.163764 0.895491
vt 0.603097 0.865168
vt 0.603097 0.880329
vt 0.591367 0.880329
vt 0.591367 0.865168
vt 0.603097 0.895491
vt 0.591367 0.895491
vt 0.383431 0.880329
vt 0.383431 0.865168
vt 0.383431 0.895491
vt 0.178376 0.880329
vt 0.178376 0.865168
vt 0.178376 0.895491
vt 0.163764 0.880329
vt 0.163764 0.865168
vt 0.163764 0.895491
vt 0.172885 0.824974
vt 0.379768 0.824974
vt 0.379768 0.807167
vt 0.172885 0.807167
vt 0.380506 0.967052
vt 0.601585 0.967052
vt 0.601585 0.940452
vt 0.380506 0.940452
vt 0.586651 0.824974
vt 0.586651 0.807167
vt 0.601585 0.967052
vt 0.380506 0.967052
vt 0.380506 0.940452
vt 0.601585 0.940452
vt 0.379768 0.824974
vt 0.172885 0.824974
vt 0.172885 0.807167
vt 0.379768 0.807167
vt 0.162491 0.967052
vt 0.162491 0.940452
vt 0.162491 0.967052
vt 0.162491 0.940452
vt 0.586651 0.824974
vt 0.586651 0.807167
vt 0.154950 0.801189
vt 0.154950 0.892496
vt 0.154950 0.983803
vt 0.089633 0.983803
vt 0.025221 0.983803
vt 0.025221 0.892496
vt 0.025221 0.801188
vt 0.089633 0.801188
vn 0.0000 0.0000 1.0000
vn 0.0000 1.0000 0.0000
vn 0.0000 0.0000 -1.0000
vn 0.0000 -1.0000 0.0000
vn 1.0000 0.0000 0.0000
vn -1.0000 0.0000 0.0000
usemtl screen_cover
s 1
f 1/1/1 2/2/1 7/3/1 6/4/1
f 2/2/1 3/5/1 8/6/1 7/3/1
f 3/5/1 4/7/1 9/8/1 8/6/1
f 4/7/1 5/9/1 10/10/1 9/8/1
f 6/4/1 7/3/1 12/11/1 11/12/1
f 9/8/1 10/10/1 14/13/1 13/14/1
f 11/12/1 12/11/1 16/15/1 15/16/1
f 13/14/1 14/13/1 19/17/1 18/18/1
f 15/16/1 16/15/1 21/19/1 20/20/1
f 16/15/1 17/21/1 22/22/1 21/19/1
f 17/21/1 18/18/1 23/23/1 22/22/1
f 18/18/1 19/17/1 24/24/1 23/23/1
f 20/25/2 21/26/2 26/27/2 25/28/2
f 21/26/2 22/29/2 27/30/2 26/27/2
f 22/29/2 23/31/2 28/32/2 27/30/2
f 23/31/2 24/33/2 29/34/2 28/32/2
f 25/28/2 26/27/2 31/35/2 30/36/2
f 26/27/2 27/30/2 32/37/2 31/35/2
f 27/30/2 28/32/2 33/38/2 32/37/2
f 28/32/2 29/34/2 34/39/2 33/38/2
f 30/40/3 31/41/3 36/42/3 35/43/3
f 31/41/3 32/44/3 37/45/3 36/42/3
f 32/44/3 33/46/3 38/47/3 37/45/3
f 33/46/3 34/48/3 39/49/3 38/47/3
f 35/43/3 36/42/3 41/50/3 40/51/3
f 36/42/3 37/45/3 42/52/3 41/50/3
f 37/45/3 38/47/3 43/53/3 42/52/3
f 38/47/3 39/49/3 44/54/3 43/53/3
f 40/51/3 41/50/3 46/55/3 45/56/3
f 41/50/3 42/52/3 47/57/3 46/55/3
f 42/52/3 43/53/3 48/58/3 47/57/3
f 43/53/3 44/54/3 49/59/3 48/58/3
f 45/56/3 46/55/3 51/60/3 50/61/3
f 46/55/3 47/57/3 52/62/3 51/60/3
f 47/57/3 48/58/3 53/63/3 52/62/3
f 48/58/3 49/59/3 54/64/3 53/63/3
f 50/65/4 51/66/4 56/67/4 55/68/4
f 51/66/4 52/69/4 57/70/4 56/67/4
f 52/69/4 53/71/4 58/72/4 57/70/4
f 53/71/4 54/73/4 59/74/4 58/72/4
f 55/68/4 56/67/4 2/75/4 1/76/4
f 56/67/4 57/70/4 3/77/4 2/75/4
f 57/70/4 58/72/4 4/78/4 3/77/4
f 58/72/4 59/74/4 5/79/4 4/78/4
f 59/80/5 54/81/5 49/82/5 60/83/5
f 5/84/5 59/80/5 60/83/5 10/85/5
f 60/83/5 49/82/5 44/86/5 61/87/5
f 10/85/5 60/83/5 61/87/5 14/88/5
f 61/87/5 44/86/5 39/89/5 62/90/5
f 14/88/5 61/87/5 62/90/5 19/91/5
f 62/90/5 39/89/5 34/92/5 29/93/5
f 19/91/5 62/90/5 29/93/5 24/94/5
f 50/95/6 55/96/6 63/97/6 45/98/6
f 55/96/6 1/99/6 6/100/6 63/97/6
f 45/98/6 63/97/6 64/101/6 40/102/6
f 63/97/6 6/100/6 11/103/6 64/101/6
f 40/102/6 64/101/6 65/104/6 35/105/6
f 64/101/6 11/103/6 15/106/6 65/104/6
f 35/105/6 65/104/6 25/107/6 30/108/6
f 65/104/6 15/106/6 20/109/6 25/107/6
f 7/110/2 8/111/2 67/112/2 66/113/2
f 12/114/5 7/115/5 66/116/5 68/117/5
f 8/111/2 9/118/2 69/119/2 67/112/2
f 9/120/6 13/121/6 70/122/6 69/123/6
f 17/124/4 16/125/4 72/126/4 71/127/4
f 16/128/5 12/114/5 68/117/5 72/129/5
f 13/121/6 18/130/6 73/131/6 70/122/6
f 18/132/4 17/124/4 71/127/4 73/133/4
f 66/134/1 67/135/1 69/136/1 70/137/1 73/138/1 71/139/1 72/140/1 68/141/1
